<?xml version="1.0" encoding="utf-8"?>
<svg width="800px" height="800px" viewBox="0 0 32 32" xmlns="http://www.w3.org/2000/svg">
  <rect x="2" y="2" width="30" height="30" rx="4" fill="#34495e"/> <!-- background -->
  <g transform="translate(6, 6) scale(0.7)"> <!-- centering and scaling -->
    <path d="M21 1V10C21 10 21 11 22 11H26M21 1C21 1 22 1 23 2L30 9C31 10 31 11 31 11V30C31 31 30 31 30 31H15M21 1H18M1 31V1.977C1 1.424 1.447 1 2 1H14C14.553 1 15 1.424 15 1.977V31M15 31H12M9 7H15M9 23H15M12 11H15M12 15H15M12 19H15M12 27H15" stroke="#FFFFFF" stroke-width="2" stroke-linecap="round" stroke-linejoin="round" fill="none"/>
  </g>
</svg>